<svg width="20" height="20" viewBox="0 0 20 20" fill="none" xmlns="http://www.w3.org/2000/svg">
<path d="M8.75008 16.5833V3.41663C8.75008 2.16663 8.21675 1.66663 6.89175 1.66663H3.52508C2.20008 1.66663 1.66675 2.16663 1.66675 3.41663V16.5833C1.66675 17.8333 2.20008 18.3333 3.52508 18.3333H6.89175C8.21675 18.3333 8.75008 17.8333 8.75008 16.5833Z" stroke="#ECA400" stroke-width="1.25" stroke-linecap="round" stroke-linejoin="round"/>
<path d="M18.3333 9.08329V3.41663C18.3333 2.16663 17.8 1.66663 16.475 1.66663H13.1083C11.7833 1.66663 11.25 2.16663 11.25 3.41663V9.08329C11.25 10.3333 11.7833 10.8333 13.1083 10.8333H16.475C17.8 10.8333 18.3333 10.3333 18.3333 9.08329Z" stroke="#ECA400" stroke-width="1.25" stroke-linecap="round" stroke-linejoin="round"/>
<path d="M18.3333 16.5834V15.0834C18.3333 13.8334 17.8 13.3334 16.475 13.3334H13.1083C11.7833 13.3334 11.25 13.8334 11.25 15.0834V16.5834C11.25 17.8334 11.7833 18.3334 13.1083 18.3334H16.475C17.8 18.3334 18.3333 17.8334 18.3333 16.5834Z" stroke="#ECA400" stroke-width="1.25" stroke-linecap="round" stroke-linejoin="round"/>
</svg>
