<svg width="84" height="84" viewBox="0 0 84 84" fill="none" xmlns="http://www.w3.org/2000/svg">
<g clip-path="url(#clip0_799_57)">
<path d="M84 42C84 18.8042 65.1958 0 42 0C18.8042 0 0 18.8042 0 42C0 62.9633 15.3589 80.3391 35.4375 83.4898V54.1406H24.7734V42H35.4375V32.7469C35.4375 22.2206 41.708 16.4062 51.3017 16.4062C55.8968 16.4062 60.7031 17.2266 60.7031 17.2266V27.5625H55.4072C50.1897 27.5625 48.5625 30.8001 48.5625 34.1217V42H60.2109L58.3488 54.1406H48.5625V83.4898C68.6411 80.3391 84 62.9636 84 42Z" fill="#1877F2"/>
<path d="M58.3488 54.1406L60.2109 42H48.5625V34.1217C48.5625 30.7998 50.1897 27.5625 55.4072 27.5625H60.7031V17.2266C60.7031 17.2266 55.8968 16.4062 51.3014 16.4062C41.708 16.4062 35.4375 22.2206 35.4375 32.7469V42H24.7734V54.1406H35.4375V83.4898C37.6084 83.83 39.8026 84.0006 42 84C44.1974 84.0007 46.3916 83.8301 48.5625 83.4898V54.1406H58.3488Z" fill="white"/>
</g>
<defs>
<clipPath id="clip0_799_57">
<rect width="84" height="84" fill="white"/>
</clipPath>
</defs>
</svg>
