<svg width="84" height="84" viewBox="0 0 84 84" fill="none" xmlns="http://www.w3.org/2000/svg">
<path d="M64.3125 0H19.6875C8.81439 0 0 8.81439 0 19.6875V64.3125C0 75.1856 8.81439 84 19.6875 84H64.3125C75.1856 84 84 75.1856 84 64.3125V19.6875C84 8.81439 75.1856 0 64.3125 0Z" fill="url(#paint0_radial_799_53)"/>
<path d="M64.3125 0H19.6875C8.81439 0 0 8.81439 0 19.6875V64.3125C0 75.1856 8.81439 84 19.6875 84H64.3125C75.1856 84 84 75.1856 84 64.3125V19.6875C84 8.81439 75.1856 0 64.3125 0Z" fill="url(#paint1_radial_799_53)"/>
<path d="M42.003 9.1875C33.0917 9.1875 31.9732 9.22655 28.4734 9.38569C24.9802 9.54581 22.5957 10.0987 20.5095 10.9102C18.351 11.7482 16.5204 12.8694 14.6967 14.6938C12.8714 16.5178 11.7502 18.3484 10.9095 20.5058C10.0958 22.5927 9.5422 24.9782 9.38503 28.4698C9.22852 31.9699 9.1875 33.0888 9.1875 42.0003C9.1875 50.9119 9.22688 52.0268 9.38569 55.5266C9.54647 59.0198 10.0994 61.4043 10.9102 63.4905C11.7488 65.6489 12.87 67.4796 14.6944 69.3033C16.5178 71.1286 18.3484 72.2525 20.5052 73.0905C22.593 73.9019 24.9779 74.4548 28.4704 74.615C31.9705 74.7741 33.0881 74.8131 41.999 74.8131C50.9112 74.8131 52.0262 74.7741 55.526 74.615C59.0192 74.4548 61.4063 73.9019 63.4942 73.0905C65.6516 72.2525 67.4796 71.1286 69.3026 69.3033C71.128 67.4796 72.2489 65.6489 73.0898 63.4915C73.8964 61.4043 74.4502 59.0192 74.6143 55.5273C74.7715 52.0275 74.8125 50.9119 74.8125 42.0003C74.8125 33.0888 74.7715 31.9705 74.6143 28.4704C74.4502 24.9772 73.8964 22.593 73.0898 20.5068C72.2489 18.3484 71.128 16.5178 69.3026 14.6938C67.4776 12.8687 65.6522 11.7475 63.4922 10.9105C61.4004 10.0987 59.0146 9.54548 55.5214 9.38569C52.0213 9.22655 50.907 9.1875 41.9928 9.1875H42.003ZM39.0593 15.1006C39.9331 15.0993 40.908 15.1006 42.003 15.1006C50.7642 15.1006 51.8024 15.1321 55.2622 15.2893C58.4614 15.4357 60.1978 15.9702 61.3545 16.4194C62.8858 17.0139 63.9775 17.725 65.1253 18.8737C66.2737 20.0222 66.9844 21.1158 67.5806 22.6472C68.0298 23.8022 68.565 25.5386 68.7107 28.7378C68.8679 32.1969 68.902 33.2358 68.902 41.9928C68.902 50.7498 68.8679 51.7889 68.7107 55.2477C68.5643 58.4469 68.0298 60.1834 67.5806 61.3387C66.9861 62.8701 66.2737 63.9604 65.1253 65.1082C63.9768 66.2566 62.8865 66.9674 61.3545 67.5622C60.1991 68.0134 58.4614 68.5466 55.2622 68.693C51.8031 68.8501 50.7642 68.8843 42.003 68.8843C33.2414 68.8843 32.2028 68.8501 28.7441 68.693C25.5449 68.5453 23.8084 68.0108 22.6508 67.5616C21.1198 66.9667 20.0258 66.256 18.8774 65.1075C17.7289 63.9591 17.0182 62.8681 16.422 61.3361C15.9728 60.1807 15.4376 58.4443 15.2919 55.2451C15.1348 51.786 15.1033 50.7472 15.1033 41.9846C15.1033 33.2223 15.1348 32.1887 15.2919 28.7296C15.4383 25.5304 15.9728 23.794 16.422 22.6373C17.0169 21.106 17.7289 20.0123 18.8777 18.8639C20.0261 17.7155 21.1198 17.0044 22.6511 16.4085C23.8078 15.9574 25.5449 15.4242 28.7441 15.2772C31.771 15.1403 32.9441 15.0993 39.0593 15.0924V15.1006ZM59.5183 20.5488C57.3444 20.5488 55.5808 22.3109 55.5808 24.485C55.5808 26.6588 57.3444 28.4225 59.5183 28.4225C61.6921 28.4225 63.4558 26.6588 63.4558 24.485C63.4558 22.3112 61.6921 20.5475 59.5183 20.5475V20.5488ZM42.003 25.1495C32.6973 25.1495 25.1524 32.6944 25.1524 42.0003C25.1524 51.3063 32.6973 58.8476 42.003 58.8476C51.3089 58.8476 58.8512 51.3063 58.8512 42.0003C58.8512 32.6947 51.3083 25.1495 42.0023 25.1495H42.003ZM42.003 31.0626C48.0434 31.0626 52.9407 35.9592 52.9407 42.0003C52.9407 48.0408 48.0434 52.938 42.003 52.938C35.9622 52.938 31.0656 48.0408 31.0656 42.0003C31.0656 35.9592 35.9622 31.0626 42.003 31.0626Z" fill="white"/>
<defs>
<radialGradient id="paint0_radial_799_53" cx="0" cy="0" r="1" gradientUnits="userSpaceOnUse" gradientTransform="translate(22.3125 90.4696) rotate(-90) scale(83.2502 77.4293)">
<stop stop-color="#FFDD55"/>
<stop offset="0.1" stop-color="#FFDD55"/>
<stop offset="0.5" stop-color="#FF543E"/>
<stop offset="1" stop-color="#C837AB"/>
</radialGradient>
<radialGradient id="paint1_radial_799_53" cx="0" cy="0" r="1" gradientUnits="userSpaceOnUse" gradientTransform="translate(-14.0703 6.05095) rotate(78.681) scale(37.2133 153.394)">
<stop stop-color="#3771C8"/>
<stop offset="0.128" stop-color="#3771C8"/>
<stop offset="1" stop-color="#6600FF" stop-opacity="0"/>
</radialGradient>
</defs>
</svg>
