<svg width="84" height="84" viewBox="0 0 84 84" fill="none" xmlns="http://www.w3.org/2000/svg">
<path d="M71.5719 71.5731H59.1258V52.0815C59.1258 47.4336 59.0428 41.4503 52.6526 41.4503C46.1701 41.4503 45.1782 46.5145 45.1782 51.7432V71.5718H32.7324V31.4894H44.6805V36.9671H44.8478C46.0435 34.9226 47.7714 33.2406 49.8474 32.1004C51.9234 30.9602 54.2698 30.4044 56.6367 30.4922C69.2514 30.4922 71.5772 38.7898 71.5772 49.5845L71.5719 71.5731ZM18.6887 26.0107C14.6997 26.0113 11.4653 22.778 11.4647 18.789C11.464 14.8 14.697 11.5656 18.6861 11.565C22.6751 11.564 25.9094 14.7973 25.9101 18.7863C25.9104 20.702 25.1498 22.5392 23.7955 23.8941C22.4413 25.2489 20.6043 26.0102 18.6887 26.0107ZM24.9119 71.5735H12.4527V31.4894H24.9116L24.9119 71.5735ZM77.7768 0.00611359H6.19861C2.81564 -0.0319489 0.0413438 2.67804 0 6.061V77.9378C0.0400313 81.3224 2.814 84.035 6.19828 83.9995H77.7768C81.1683 84.0415 83.9531 81.3289 84 77.9378V6.05543C83.9518 2.66589 81.1666 -0.0437614 77.7768 0.000535465" fill="#0A66C2"/>
</svg>
