<svg width="44" height="36" viewBox="0 0 44 36" fill="none" xmlns="http://www.w3.org/2000/svg">
<path d="M7.27501 35.8502H12.8625C16.95 35.8502 20.1375 32.6627 20.1375 28.5752V22.9875C20.1375 18.9 16.95 15.7125 12.8625 15.7125H5.69999C5.99999 8.92501 7.57501 7.91259 12.1125 5.25009C13.4625 4.46259 13.875 2.73771 13.0875 1.38771C12.5625 0.487711 11.625 0 10.65 0C10.1625 0 9.675 0.112637 9.225 0.375137C2.5125 4.35014 0 6.9377 0 18.4877V28.5001C0 32.5876 3.26251 35.8502 7.27501 35.8502Z" fill="#F2C66D"/>
<path d="M30.2623 35.8505H35.8498C39.9373 35.8505 43.1248 32.663 43.1248 28.5755V22.9878C43.1248 18.9003 39.9373 15.7128 35.8498 15.7128H28.6873C28.9873 8.92525 30.5623 7.91284 35.0998 5.25034C36.4498 4.46284 36.8623 2.73795 36.0748 1.38795C35.5498 0.487955 34.6123 0.000244141 33.6373 0.000244141C33.1498 0.000244141 32.6623 0.112881 32.2123 0.375381C25.4998 4.35038 22.9873 6.93795 22.9873 18.4879V28.5004C23.0248 32.5879 26.2873 35.8505 30.2623 35.8505Z" fill="#F2C66D"/>
</svg>
